<?xml version="1.0" encoding="utf-8"?>
<!-- Generator: Adobe Illustrator 23.0.3, SVG Export Plug-In . SVG Version: 6.00 Build 0)  -->
<svg version="1.1" id="Layer_1" xmlns="http://www.w3.org/2000/svg" xmlns:xlink="http://www.w3.org/1999/xlink" x="0px" y="0px"
	 viewBox="0 0 162.7 200" style="enable-background:new 0 0 162.7 200;" xml:space="preserve">
<style type="text/css">
	.st0{fill:#2668B3;}
	.st1{fill:none;}
</style>
<g>
	<g>
		<path class="st0" d="M81.3,178.7c-0.5,0-1.1-0.3-1.3-0.5c-10.1-6.1-22.7-11.2-35.5-14.7c-8.3-2.1-16.5-3.5-24.8-4
			c-1.6,0-2.7-1.3-2.7-2.9v-47.7c0-1.6,1.1-2.7,2.7-2.9H20c8.5,0.5,17.3,1.9,25.9,4c12.3,3.2,24.3,8,34.9,14.4l0.3,0.3l0.3-0.3
			c10.7-6.1,22.9-11.2,34.9-14.4c8.5-2.1,17.3-3.7,25.9-4l0,0c0.8,0,1.6,0.3,2.1,0.8c0.5,0.5,0.8,1.3,0.8,2.1v48.3
			c0,1.6-1.1,2.7-2.7,2.9c-8,0.5-16.5,1.9-24.8,4c-12.5,3.2-25.3,8.5-35.5,14.7C82.4,178.7,81.9,178.7,81.3,178.7z M139.2,112.3
			c-7.5,0.8-14.4,1.9-20.8,3.5c-12,3.2-23.7,7.7-33.6,13.6l-0.5,0.3v41.9l1.1-0.8c9.9-5.3,20.5-9.3,31.5-12.3
			c7.2-1.9,14.7-3.2,22.4-3.7h0.8V112L139.2,112.3z M22.7,154.4h0.8c8,0.5,15.2,1.9,22.4,3.7c10.9,2.9,21.6,7.2,31.5,12.5l1.1,0.5
			v-41.9l-0.5-0.3c-10.1-5.6-21.6-10.4-33.6-13.6c-6.7-1.6-13.3-2.9-20.8-3.5h-0.8C22.7,112,22.7,154.4,22.7,154.4z M120.3,102.4
			c-0.8,0-1.6-0.3-2.1-0.8c-0.5-0.5-0.8-1.3-0.8-2.1c0-20.3-16.3-36.5-36.3-36.5S44.8,79.2,44.8,99.5c0,0.8-0.3,1.6-0.8,2.1
			c-0.5,0.5-1.3,0.8-2.1,0.8c-0.8,0-1.6-0.3-2.1-0.8c-0.5-0.5-0.8-1.3-0.8-2.1c0-18.4,11.7-34.7,29.1-40.3l1.6-0.5l-1.3-0.8
			c-5.3-4-8.3-9.9-8.3-16.3c0-11.5,9.3-20.5,20.8-20.5s20.8,9.3,20.8,20.5c0,6.4-2.9,12.5-8.3,16.3L92,58.7l1.6,0.5
			c17.3,5.6,29.1,21.6,29.1,40c0,0.8-0.3,1.6-0.8,2.1C121.9,102.1,121.1,102.4,120.3,102.4z M81.3,26.9c-8.3,0-14.9,6.7-14.9,14.9
			s6.7,14.9,14.9,14.9s15.2-6.7,15.2-14.9S89.6,26.9,81.3,26.9z"/>
	</g>
	<rect class="st1" width="162.7" height="200"/>
</g>
</svg>
