<?xml version="1.0" encoding="utf-8"?>
<!-- Generator: Adobe Illustrator 23.0.3, SVG Export Plug-In . SVG Version: 6.00 Build 0)  -->
<svg version="1.1" id="Layer_1" xmlns="http://www.w3.org/2000/svg" xmlns:xlink="http://www.w3.org/1999/xlink" x="0px" y="0px"
	 viewBox="0 0 162.7 200" style="enable-background:new 0 0 162.7 200;" xml:space="preserve">
<style type="text/css">
	.st0{fill:none;stroke:#2668B3;stroke-width:4;stroke-linecap:round;stroke-linejoin:round;}
	.st1{fill:none;}
</style>
<g>
	<g>
		<line class="st0" x1="129.6" y1="164.3" x2="129.6" y2="117.6"/>
		<path class="st0" d="M137.1,48.8c0,4.3-3.5,10.4-7.7,10.4c-4.3,0-7.7-5.9-7.7-10.4c0-4.3,3.5-7.7,7.7-7.7
			C133.9,41.1,137.1,44.5,137.1,48.8z"/>
		<path class="st0" d="M139.5,164.3l2.9-55.5c0-1.1,3.5,0.3,3.7-0.8c1.3-38.9-1.9-41.3-2.1-41.6c-0.5,0-4-0.3-5.1-0.3
			c-1.3,0-2.7,0.8-3.2,2.1c-2.4,4.5-10.1,4.5-12.3,0c-0.8-1.6-1.9-2.4-3.5-2.4c-0.8,0-25.1,4-32.8,5.3c-3.2,0.5-2.9,5.3,0.3,5.6
			l29.1,2.7v29.3l2.9,55.5"/>
		<polyline class="st0" points="101.9,138.4 16.3,138.4 16.3,43.2 106.4,43.2 		"/>
		<line class="st0" x1="84" y1="147.7" x2="84" y2="165.3"/>
		<line class="st0" x1="65.9" y1="165.3" x2="97.1" y2="165.3"/>
		<rect x="34.1" y="56.8" class="st0" width="22.7" height="22.7"/>
		<line class="st0" x1="70.4" y1="61.3" x2="97.6" y2="61.3"/>
		<line class="st0" x1="70.4" y1="70.4" x2="74.7" y2="70.4"/>
		<rect x="34.1" y="97.6" class="st0" width="22.7" height="22.7"/>
		<line class="st0" x1="70.4" y1="102.1" x2="97.6" y2="102.1"/>
		<line class="st0" x1="70.4" y1="111.2" x2="84" y2="111.2"/>
	</g>
	<rect class="st1" width="162.7" height="200"/>
</g>
</svg>
